<svg xmlns="http://www.w3.org/2000/svg" width="231.375" height="35.059"><path fill="#c1282d" d="M25.083 0h206.292v35H25.083z"/><path fill="#ef4041" d="M0 .029h112.375v35H0z"/><path d="M132.425 14.368a2.773 2.773 0 01.894 2.208 3.012 3.012 0 01-.894 2.327 3.576 3.576 0 01-2.526.828l-1.32.013V22h-2.5v-8.412h3.821a3.721 3.721 0 012.525.78zm-1.776 3.144a1.157 1.157 0 00.306-.864 1.12 1.12 0 00-.306-.846 1.207 1.207 0 00-.87-.294h-1.2v2.3h1.2a1.192 1.192 0 00.87-.296zm14.07-3.924l-3.024 5.748V22h-2.5v-2.616l-3.084-5.8h2.5l1.836 3.432 1.788-3.432zm2.628 0h7.392v1.992h-2.448V22h-2.508v-6.42h-2.436zm10.812 0h2.5v3.348h2.988v-3.348h2.5V22h-2.5v-3.132h-2.988V22h-2.5zm18.486.412a4.188 4.188 0 011.644 1.554 4.239 4.239 0 01.594 2.226 4.323 4.323 0 01-.594 2.25 4.2 4.2 0 01-1.644 1.572 5.123 5.123 0 01-4.7 0 4.214 4.214 0 01-1.638-1.572 4.327 4.327 0 01-.594-2.25 4.244 4.244 0 01.594-2.226 4.2 4.2 0 011.64-1.554 5.174 5.174 0 014.7 0zm-3.336 1.812a2.178 2.178 0 00-.756.822 2.4 2.4 0 00-.282 1.158 2.434 2.434 0 00.282 1.164 2.215 2.215 0 00.756.834 1.855 1.855 0 001.026.306 1.778 1.778 0 001-.306 2.126 2.126 0 00.726-.828 2.559 2.559 0 00.264-1.17 2.533 2.533 0 00-.264-1.158 2.094 2.094 0 00-.72-.822 1.8 1.8 0 00-1.008-.3 1.882 1.882 0 00-1.024.296zm14.85-2.224h2.28V22h-2.124l-3.564-4.68V22h-2.292v-8.412h2.136l3.564 4.692zm-172.37-.119l2.461 6.539 2.455-6.539h1.916V22h-1.476v-2.812l.146-3.762L18.771 22h-1.06L15.2 15.432l.146 3.756V22h-1.479v-8.531zm16.105 6.545h-3.3L27.9 22h-1.543l3.223-8.531h1.33L34.138 22h-1.547zm-2.889-1.2h2.473l-1.236-3.539zM37.745 22v-8.531h2.52a3.952 3.952 0 012.007.5 3.436 3.436 0 011.356 1.43 4.538 4.538 0 01.48 2.121v.428a4.519 4.519 0 01-.483 2.133 3.4 3.4 0 01-1.377 1.419 4.135 4.135 0 01-2.048.5zm1.482-7.336V20.8h.967a2.229 2.229 0 001.79-.729 3.165 3.165 0 00.636-2.09v-.475a3.251 3.251 0 00-.6-2.117 2.142 2.142 0 00-1.752-.731zm13.984 3.527h-3.5V20.8h4.1V22h-5.586v-8.531h5.537v1.2h-4.055v2.351h3.5zm16.759 1.7l1.313-6.422h1.471L70.784 22h-1.418l-1.623-6.229L66.085 22h-1.424l-1.969-8.531h1.471l1.324 6.41 1.629-6.41h1.242zM78.041 22h-1.477v-8.531h1.477zM88.5 14.664h-2.66V22h-1.473v-7.336H81.73v-1.2h6.77zM99.03 22h-1.476v-3.785h-3.815V22h-1.482v-8.531h1.482v3.551h3.814v-3.551h1.477z" fill="#fff"/><path d="M218.254 16.391c-.2-1.36-.78-2.22-1.66-2.45a3.13 3.13 0 00-.92 0h-.68v1a9.331 9.331 0 010 1.09 2.33 2.33 0 01-.34.95 1.77 1.77 0 01-1.23.78 15 15 0 01-2.23 0h-2.06a1.79 1.79 0 00-1.69 1.53q-.05 1 0 2v1.86a1.46 1.46 0 00.44.87 3.22 3.22 0 001.8.77 8.38 8.38 0 001 .1h.93a5.83 5.83 0 001.83-.34 1.53 1.53 0 001.08-1.1v-1.84h-3.57v-.59h2.62a20.49 20.49 0 002.84 0 2 2 0 00.8-.36 3 3 0 001-2.08 9.9 9.9 0 000-1.06v-1zm-5.91 6.63a.58.58 0 01.06-.26.66.66 0 01.43-.34.81.81 0 01.31 0 .65.65 0 01.46.46.53.53 0 010 .16.55.55 0 01-.06.27.65.65 0 01-.45.36.85.85 0 01-.26 0 .65.65 0 01-.49-.48.52.52 0 010-.17z" fill="#f3f3f3"/><path d="M214.514 11.851a1.62 1.62 0 00-.82-1.1 5.48 5.48 0 00-2.79-.57 5.4 5.4 0 00-2.88.6 1.3 1.3 0 00-.6.82 7.32 7.32 0 000 1v.85H211v.57h-5.31a2 2 0 00-1.31.73 3.74 3.74 0 00-.73 2.12 9 9 0 000 1.44 4.8 4.8 0 00.43 1.69 2.1 2.1 0 001.05 1.02 1.92 1.92 0 00.35.09h1.4v-1a9.179 9.179 0 010-1.09 2.13 2.13 0 01.54-1.2 1.83 1.83 0 011.13-.54h2.11a13.81 13.81 0 002.21 0 1.93 1.93 0 001.31-.79 2.08 2.08 0 00.18-.36 2.23 2.23 0 00.11-.52v-1.88c.054-1.631.054-1.82.044-1.88zm-5 .37a.66.66 0 01-.44.36.87.87 0 01-.24 0 .64.64 0 01-.52-.46.79.79 0 010-.35.64.64 0 011.24 0 .68.68 0 01-.03.45z" fill="#fff"/></svg>